# xmcd
#
# Track frame offsets:
#	187
#	22432
#	41850
#	64302
#	82947
#	104295
#	124905
#	146295
#	164917
#	185482
#	203335
#
# Disc length: 3037 seconds
#
# Revision: 1
# Processed by: cddbd v1.5PL3 Copyright (c) Steve Scherf et al.
# Submitted via: CDex 1.50Beta5
#
DISCID=a00bdb0b
DTITLE=真行寺恵里 - Hard Voltage
DYEAR=1998
DGENRE=Rock
TTITLE0=Get a life!
TTITLE1=Keep on dreamin’
TTITLE2=IN MY DREAM
TTITLE3=春の幻影
TTITLE4=揺れる秋桜
TTITLE5=Bye bye my boy
TTITLE6=WAITING FOR YOUR LOVE
TTITLE7=しあわせのファイル
TTITLE8=キラキラ☆ハッピーエンディング
TTITLE9=明日へのrun away
TTITLE10=Do you remember
EXTD=
EXTT0=
EXTT1=
EXTT2=
EXTT3=
EXTT4=
EXTT5=
EXTT6=
EXTT7=
EXTT8=
EXTT9=
EXTT10=
PLAYORDER=
